<svg xmlns="http://www.w3.org/2000/svg" viewBox="0 0 167 167" width="167" height="167">
	<defs>
		<clipPath clipPathUnits="userSpaceOnUse" id="cp1">
			<path d="M0 0L167 0L167 167L0 167Z" />
		</clipPath>
	</defs>
	<style>
		tspan { white-space:pre }
		.shp0 { fill: #2d3666 } 
		.shp1 { fill: #78d5dd } 
		.shp2 { fill: #48bbc7 } 
		.shp3 { fill: #9ae0e6 } 
		.shp4 { fill: #a8eff3 } 
		.shp5 { fill: #e8f3ff } 
		.shp6 { fill: #ffdca1 } 
		.shp7 { fill: #ffe5b9 } 
		.shp8 { fill: #78bfa0 } 
		.shp9 { fill: #a8d6b0 } 
		.shp10 { fill: #ffc675 } 
		.shp11 { fill: #48a890 } 
		.shp12 { fill: #b8daf2 } 
	</style>
	<g id="Page 1" clip-path="url(#cp1)">
		<path id="Path 1" class="shp0" d="M10.13 156.84C9.48 156.19 8.98 155.39 8.6 154.29C8.22 153.19 8 151.79 8 150.1C7.99 146.21 9.22 140.84 11.75 134.59C15.53 125.2 22.14 113.8 31.01 101.6C39.89 89.39 51.02 76.35 63.87 63.51C81 46.38 98.48 32.28 113.86 22.55C121.54 17.68 128.7 13.91 134.96 11.39C141.21 8.86 146.58 7.62 150.46 7.64C152.16 7.63 153.56 7.86 154.65 8.23C155.75 8.61 156.55 9.11 157.21 9.76C158.77 11.33 161.3 11.33 162.87 9.77C164.43 8.21 164.43 5.67 162.87 4.11C161.29 2.52 159.34 1.37 157.23 0.66C155.12 -0.06 152.85 -0.36 150.46 -0.36C144.99 -0.35 138.83 1.21 131.97 3.97C121.69 8.12 109.86 15.03 97.26 24.18C84.67 33.33 71.34 44.72 58.21 57.85C40.72 75.35 26.29 93.22 16.16 109.21C11.09 117.22 7.1 124.75 4.33 131.6C1.58 138.46 0.01 144.62 0 150.1C0 152.48 0.31 154.75 1.03 156.87C1.74 158.97 2.89 160.92 4.48 162.5C6.04 164.06 8.57 164.06 10.13 162.5C11.69 160.94 11.69 158.4 10.13 156.84Z" />
		<path id="Path 2" class="shp1" d="M83.67 11.63C123.25 11.63 155.34 43.72 155.34 83.3C155.34 122.89 123.25 154.97 83.67 154.97C44.09 154.97 12 122.89 12 83.3C12 43.72 44.09 11.63 83.67 11.63Z" />
		<path id="Path 3" class="shp2" d="M85.38 13.36C61.44 13.36 40.22 25.11 27.22 43.16C30.81 43.54 36.88 44.73 39.55 48.4C40.22 48.91 40.82 49.5 41.3 50.17C42.73 51.25 43.83 52.65 44.23 54.48C44.4 55.25 44.59 55.96 44.81 56.6L44.82 56.59C45.13 57.51 45.48 58.32 45.88 59.01C45.93 59.04 45.97 59.07 46.02 59.09C57.76 43.76 75.53 33.31 95.78 31.3C94.43 28.65 93.7 25.68 93.78 22.69C93.84 19.87 94.56 16.96 93.62 14.3L93.68 13.83C90.96 13.52 88.18 13.36 85.38 13.36Z" />
		<path id="Path 4" class="shp3" d="M155.34 82.95C155.34 82.97 155.34 82.99 155.34 83.02C155.34 82.99 155.34 82.97 155.34 82.95ZM155.34 83.12L155.34 83.28L155.34 83.12ZM155.34 83.31C155.34 115.49 134.12 142.72 104.91 151.78C134.13 142.73 155.34 115.5 155.34 83.32L155.34 83.31ZM30.18 131.02C30.18 131.01 30.18 131.02 30.18 131.02ZM59.86 150.93C67.3 153.56 75.32 154.98 83.66 154.98L83.66 154.98C75.32 154.98 67.31 153.55 59.86 150.93Z" />
		<path id="Path 5" class="shp4" d="M135.68 41.15C140.18 50.52 142.7 61.02 142.7 72.11C142.7 111.71 110.62 143.79 71.02 143.79C63.91 143.79 57.04 142.76 50.55 140.83C52.74 144.23 55.61 147.53 59.22 150.69C59.43 150.77 59.65 150.85 59.86 150.93C67.31 153.55 75.32 154.97 83.66 154.97C91.06 154.97 98.2 153.85 104.91 151.77C134.12 142.72 155.34 115.49 155.34 83.31L155.34 83.28L155.34 83.12L155.34 83.02C155.34 82.99 155.34 82.97 155.34 82.94C155.27 69.16 151.3 56.3 144.5 45.39C143.86 44.53 143.21 43.68 142.53 42.84C142.48 42.81 142.44 42.78 142.39 42.76C140.07 41.95 137.84 41.45 135.68 41.15Z" />
		<path id="Path 6" class="shp0" d="M16.83 167C11.6 167 7.47 165.5 4.48 162.5C2.91 160.94 2.91 158.4 4.48 156.84C6.04 155.28 8.57 155.28 10.13 156.84C13.37 160.08 21.19 159.6 31.59 155.54C33.65 154.73 35.96 155.75 36.77 157.81C37.57 159.87 36.56 162.19 34.5 162.99C27.66 165.66 21.76 167 16.83 167ZM133.96 78.79C133.1 78.79 132.23 78.52 131.5 77.95C129.76 76.59 129.45 74.08 130.81 72.33C156.41 39.52 163.47 16.02 157.21 9.76C155.65 8.2 155.65 5.67 157.21 4.11C158.77 2.54 161.31 2.54 162.87 4.11C173.88 15.11 164.25 42.46 137.12 77.25C136.33 78.26 135.15 78.79 133.96 78.79ZM91.59 125.87C89.85 125.87 88.26 124.73 87.75 122.98C87.13 120.86 88.35 118.64 90.48 118.03L126.72 107.52C128.83 106.91 131.06 108.13 131.68 110.25C132.29 112.37 131.07 114.59 128.95 115.2L92.7 125.71C92.33 125.82 91.96 125.87 91.59 125.87ZM91.59 125.87C91.37 125.87 91.14 125.85 90.91 125.81C88.73 125.43 87.27 123.36 87.65 121.19L94.09 84C94.47 81.83 96.54 80.37 98.71 80.74C100.89 81.12 102.35 83.19 101.97 85.37L95.53 122.55C95.19 124.5 93.5 125.87 91.59 125.87ZM99.59 116.93C98.64 116.93 97.69 116.59 96.92 115.91C95.28 114.43 95.14 111.9 96.61 110.26L117.95 86.41C119.42 84.77 121.95 84.62 123.6 86.1C125.25 87.57 125.39 90.1 123.91 91.75L102.57 115.59C101.78 116.48 100.69 116.93 99.59 116.93Z" />
		<path id="Path 7" class="shp5" d="M104.85 131.05C98.95 137.63 88.84 138.19 82.25 132.3C75.67 126.41 75.11 116.29 81 109.71C86.89 103.12 97.01 102.56 103.59 108.45C110.18 114.35 110.74 124.46 104.85 131.05Z" />
		<path id="Path 8" class="shp6" d="M93.88 12.36C114.22 15.25 131.82 26.69 142.9 42.93C135.11 40.11 128.32 40.67 122.01 41.24C116.12 41.77 110.65 42.3 105.16 40.07C98.34 37.31 93.58 30.07 93.78 22.69C93.84 19.87 94.56 16.96 93.62 14.3L93.88 12.36Z" />
		<path id="Path 9" class="shp7" d="M135.33 33.62C138.1 36.5 140.64 39.62 142.9 42.93L142.9 42.93C142.96 43.02 143.02 43.11 143.08 43.2C143.19 43.28 143.31 43.36 143.43 43.44C143.96 43.82 144.51 44.2 145.04 44.58L144.8 44.2C144.61 43.96 144.43 43.7 144.24 43.46C143.56 42.56 142.87 41.66 142.12 40.8L141.8 40.42C141.09 39.56 140.32 38.7 139.54 37.88L139.38 37.72C138.62 36.88 137.82 36.08 137.01 35.3L136.77 35.08L136.71 35.03C136.25 34.56 135.8 34.08 135.33 33.62Z" />
		<path id="Path 10" class="shp8" d="M142.49 42.79C142.5 42.81 142.52 42.82 142.53 42.84C142.71 42.96 142.9 43.08 143.08 43.2C143.02 43.11 142.96 43.02 142.9 42.93C142.76 42.88 142.62 42.83 142.49 42.79Z" />
		<path id="Path 11" class="shp9" d="M142.4 42.76C142.44 42.78 142.49 42.81 142.53 42.84C142.52 42.82 142.5 42.8 142.49 42.79C142.46 42.78 142.43 42.77 142.4 42.76Z" />
		<path id="Path 12" class="shp10" d="M95.61 14.08L95.34 16.02C96.29 18.68 95.56 21.6 95.5 24.42C95.47 26.08 95.66 27.74 96.1 29.34C96.57 29.31 97.05 29.31 97.53 29.29C97.62 29.9 97.72 30.52 97.89 31.12C99.57 31 101.27 30.94 102.97 30.94C106.43 30.94 109.85 31.18 113.19 31.66L113.69 31.74C114.15 31.8 114.63 31.88 115.08 31.96C117.19 32.32 119.24 32.76 121.29 33.3C122.31 33.58 123.32 33.86 124.33 34.18C124.93 34.36 125.51 34.56 126.11 34.76C127.71 35.3 129.31 35.9 130.87 36.56C131.69 36.92 132.51 37.28 133.31 37.66C134.05 38 134.77 38.34 135.48 38.72C136.32 39.14 137.17 39.6 137.99 40.06C138.31 40.22 138.61 40.4 138.91 40.58C139.48 40.92 140.05 41.24 140.59 41.6C141.15 41.92 141.66 42.26 142.21 42.64C142.27 42.68 142.33 42.72 142.4 42.76C142.43 42.77 142.46 42.78 142.49 42.79C142.62 42.83 142.76 42.88 142.9 42.93L142.9 42.93C140.64 39.62 138.1 36.5 135.33 33.62C135.3 33.59 135.26 33.55 135.23 33.52L134.98 33.3C134.22 32.56 133.44 31.84 132.66 31.16L132.16 30.72C131.42 30.08 130.66 29.46 129.9 28.84C128.78 27.96 127.65 27.1 126.44 26.26C125.6 25.68 124.73 25.1 123.84 24.52C120.52 22.42 117.02 20.56 113.36 19.02C112.92 18.84 112.48 18.66 112.04 18.48C109.52 17.46 106.96 16.6 104.32 15.9C103.78 15.74 103.23 15.6 102.66 15.46C102.18 15.34 101.73 15.22 101.24 15.12C100.68 15 100.1 14.86 99.52 14.74L99.24 14.7C98.66 14.58 98.08 14.48 97.5 14.38C96.92 14.28 96.32 14.18 95.74 14.1L95.61 14.08Z" />
		<path id="Path 13" class="shp6" d="M59.1 63.31C65.56 66.61 68.42 74.13 56 91.81C42.06 111.65 39.34 133.31 59.22 150.69C31.68 140.71 12 114.31 12 83.31C12 68.35 16.58 54.45 24.42 42.97C24.42 42.97 38.98 43.03 40.72 50.97C43.22 62.36 50.84 59.09 59.1 63.31Z" />
		<path id="Path 14" class="shp8" d="M40.17 49.41C40.41 49.89 40.6 50.41 40.72 50.97C41.72 55.52 43.53 57.73 45.88 59.01C45.48 58.32 45.12 57.52 44.81 56.6C44.61 56.86 44.39 57.11 44.18 57.38C43.46 56.18 42.88 54.66 42.44 52.7C42.23 51.74 41.83 50.91 41.3 50.17C40.94 49.89 40.56 49.64 40.17 49.41Z" />
		<path id="Path 15" class="shp11" d="M39.55 48.39C39.79 48.71 39.99 49.05 40.17 49.41C40.56 49.64 40.94 49.89 41.3 50.17C41.83 50.91 42.24 51.74 42.44 52.7C42.89 54.66 43.47 56.18 44.18 57.38C44.39 57.11 44.61 56.86 44.81 56.6C44.59 55.96 44.4 55.25 44.23 54.48C43.83 52.65 42.73 51.25 41.3 50.17C40.82 49.5 40.22 48.91 39.55 48.39Z" />
		<path id="Path 16" class="shp7" d="M33.74 134.73C33.79 134.78 33.85 134.84 33.91 134.9C34.37 135.37 34.86 135.83 35.34 136.29L35.69 136.68C36.61 137.62 37.55 138.54 38.53 139.44C40.57 141.34 42.73 143.1 44.99 144.76L45.01 144.76C44.51 144.09 44.04 143.42 43.59 142.73C40.07 140.35 36.78 137.67 33.74 134.73Z" />
		<path id="Path 17" class="shp10" d="M26.15 44.7L25.97 44.96C25.57 45.56 25.17 46.16 24.77 46.78C24.29 47.54 23.83 48.32 23.36 49.12C22.93 49.86 22.51 50.64 22.09 51.4C21.27 52.94 20.51 54.52 19.78 56.12C19.44 56.94 19.09 57.74 18.77 58.56C17.09 62.8 15.81 67.22 14.94 71.8C14.81 72.54 14.67 73.28 14.57 74.04C14.43 74.94 14.31 75.84 14.2 76.74C13.99 78.54 13.85 80.36 13.79 82.2L13.79 82.26C13.75 83.18 13.73 84.1 13.73 85.02L13.73 85.04C13.73 85.84 13.75 86.66 13.79 87.46C13.79 87.98 13.81 88.5 13.85 89C13.85 89.24 13.86 89.5 13.88 89.74C13.93 90.34 13.97 90.92 14.02 91.5L14.07 91.96C14.15 92.88 14.25 93.78 14.39 94.68C14.44 95.26 14.52 95.84 14.63 96.42C14.77 97.36 14.94 98.28 15.12 99.2C15.27 99.96 15.44 100.72 15.63 101.48C16.02 103.22 16.51 104.94 17.05 106.64C17.19 107.1 17.33 107.54 17.49 107.98C17.59 108.28 17.69 108.58 17.81 108.9C17.97 109.4 18.15 109.9 18.35 110.4C18.6 111.08 18.86 111.74 19.12 112.4C19.49 113.24 19.85 114.08 20.23 114.9C20.57 115.66 20.93 116.38 21.29 117.12C22.07 118.68 22.91 120.2 23.8 121.7C24.05 122.1 24.29 122.5 24.54 122.9C24.86 123.44 25.2 123.96 25.54 124.5C25.93 125.08 26.33 125.66 26.75 126.24C27.49 127.28 28.25 128.32 29.05 129.34C29.46 129.86 29.86 130.38 30.31 130.88C31.4 132.2 32.54 133.48 33.74 134.73C36.77 137.67 40.07 140.35 43.59 142.73C43.58 142.72 43.57 142.71 43.57 142.7L43.41 142.46C42.53 141.16 41.71 139.84 40.91 138.48C40.69 138.12 40.49 137.74 40.29 137.36C39.89 136.68 39.53 135.98 39.17 135.3C38.79 134.54 38.41 133.78 38.07 133.02C37.27 131.32 36.53 129.6 35.87 127.82C35.59 127.1 35.33 126.38 35.09 125.64C34.91 125.14 34.75 124.64 34.61 124.14C34.39 123.5 34.19 122.84 34.01 122.18C33.51 120.4 33.07 118.6 32.71 116.78C32.53 115.86 32.35 114.94 32.21 114C32.07 113.08 31.93 112.14 31.81 111.2C31.61 109.4 31.45 107.58 31.39 105.74C31.33 104.7 31.31 103.66 31.31 102.62L31.31 102.6C31.31 101.68 31.33 100.74 31.37 99.82C31.39 98.98 31.45 98.16 31.51 97.32L31.53 97C31.59 96.1 31.69 95.22 31.79 94.32C31.87 93.6 31.97 92.86 32.07 92.14C32.09 91.96 32.11 91.8 32.15 91.62C32.27 90.82 32.41 90.02 32.55 89.24C32.59 89.02 32.63 88.8 32.69 88.58C32.83 87.84 32.99 87.08 33.17 86.34L33.17 86.26C33.37 85.44 33.57 84.62 33.81 83.8C33.97 83.16 34.15 82.54 34.35 81.9C34.47 81.44 34.61 81 34.77 80.54C34.93 80 35.11 79.48 35.31 78.96C35.43 78.56 35.57 78.16 35.73 77.78C36.17 76.6 36.63 75.44 37.13 74.28C37.33 73.8 37.53 73.32 37.77 72.86L37.81 72.76C38.39 71.48 39.01 70.22 39.67 68.98C40.05 68.26 40.45 67.56 40.85 66.86L40.95 66.7C41.37 65.98 41.79 65.28 42.23 64.58C42.35 64.4 42.47 64.2 42.57 64.02C42.95 63.44 43.33 62.86 43.73 62.28C44.45 61.22 45.19 60.18 45.97 59.16C45.94 59.11 45.91 59.06 45.88 59.01C43.53 57.73 41.72 55.52 40.72 50.98C40.6 50.41 40.41 49.9 40.17 49.41C39.99 49.05 39.79 48.71 39.55 48.4C34.79 44.74 26.15 44.7 26.15 44.7Z" />
		<path id="Path 18" fill-rule="evenodd" class="shp0" d="M83.66 158.97C74.8 158.97 66.15 157.47 57.96 154.49C57.88 154.47 57.81 154.44 57.74 154.41C46.05 150.13 35.49 142.97 27.2 133.68C14.82 119.81 8 101.92 8 83.31C8 68.01 12.54 53.28 21.12 40.72C35.24 20 58.62 7.63 83.66 7.63C87.3 7.63 90.93 7.89 94.45 8.39C115.34 11.37 134.17 23.1 146.14 40.59C146.17 40.63 146.21 40.68 146.24 40.73C146.71 41.4 147.18 42.14 147.64 42.87L147.88 43.25C155.38 55.28 159.34 69.13 159.34 83.31C159.34 125.03 125.39 158.97 83.66 158.97ZM83.66 15.63C63.54 15.63 44.61 24.57 31.81 39.84C37.01 41 43.23 43.73 44.63 50.12C44.95 51.57 45.38 52.74 45.89 53.59C47.09 55.64 48.78 56.1 52.48 56.95C55.01 57.53 57.86 58.19 60.92 59.75C64.76 61.71 67.28 64.74 68.21 68.51C69.8 74.92 66.88 83.29 59.27 94.11C49.18 108.48 41.4 129.3 61.3 147.19C68.43 149.7 75.95 150.97 83.66 150.97C120.98 150.97 151.34 120.62 151.34 83.31C151.34 70.63 147.8 58.25 141.11 47.51L140.88 47.14C140.69 46.86 140.51 46.57 140.33 46.28C133.76 44.2 127.85 44.73 122.13 45.24C116.15 45.78 109.98 46.33 103.66 43.78C95.24 40.38 89.54 31.66 89.78 22.59C89.8 21.72 89.88 20.82 89.95 19.93C90.09 18.42 90.21 16.98 89.94 15.92C87.87 15.73 85.77 15.63 83.66 15.63ZM16 83.31C16 99.96 22.1 115.95 33.17 128.35C36.6 132.2 40.48 135.65 44.69 138.62C37.64 124.13 40.29 107.22 52.73 89.52C60.73 78.12 61 72.67 60.45 70.44C60.21 69.48 59.62 68.07 57.28 66.88C55.1 65.76 52.86 65.25 50.69 64.75C46.61 63.81 41.98 62.75 39.01 57.68C38.07 56.11 37.34 54.19 36.82 51.85C36.16 48.86 30.44 47.49 26.49 47.1C19.62 57.91 16 70.38 16 83.31ZM97.92 20.62C97.86 21.34 97.79 22.06 97.78 22.78C97.62 28.52 101.36 34.22 106.66 36.37C111.18 38.19 115.93 37.77 121.42 37.28C124.97 36.96 128.77 36.62 132.88 36.86C123.54 26.97 111.4 20.07 98.1 17.17C98.12 18.38 98.02 19.53 97.92 20.62Z" />
		<path id="Path 19" class="shp12" d="M107.6 113.97C101.44 111.25 93.96 112.65 89.24 117.93C84.92 122.75 84.06 129.45 86.48 135.01C84.98 134.35 83.56 133.45 82.26 132.29C75.66 126.41 75.1 116.29 81 109.71C86.9 103.11 97 102.55 103.6 108.45C105.36 110.03 106.7 111.93 107.6 113.97Z" />
		<path id="Path 20" fill-rule="evenodd" class="shp0" d="M92.91 140.37C88.16 140.37 83.4 138.69 79.58 135.28C75.6 131.72 73.25 126.82 72.95 121.48C72.66 116.15 74.46 111.02 78.02 107.04C81.58 103.06 86.48 100.7 91.82 100.41C97.15 100.14 102.28 101.91 106.26 105.47C110.24 109.04 112.6 113.93 112.89 119.27C113.19 124.6 111.39 129.74 107.83 133.72C103.88 138.12 98.41 140.37 92.91 140.37ZM92.94 108.38C92.71 108.38 92.49 108.38 92.26 108.39C89.06 108.57 86.12 109.99 83.98 112.38C81.84 114.76 80.76 117.84 80.94 121.04C81.12 124.24 82.53 127.18 84.92 129.32C89.85 133.73 97.45 133.31 101.87 128.38C104 125.99 105.08 122.91 104.9 119.71C104.73 116.51 103.31 113.57 100.93 111.43C98.71 109.45 95.89 108.38 92.94 108.38Z" />
	</g>
</svg>